<?xml version="1.0" encoding="UTF-8" ?>
<!DOCTYPE svg PUBLIC "-//W3C//DTD SVG 1.1//EN" "http://www.w3.org/Graphics/SVG/1.1/DTD/svg11.dtd">
<svg width="500pt" height="500pt" viewBox="0 0 500 500" version="1.1" xmlns="http://www.w3.org/2000/svg">
<g id="#00ff6eff">
</g>
<g id="#ff1616ff">
<path fill="#ff1616" opacity="1.00" d=" M 265.93 185.96 C 270.66 183.30 276.26 181.77 281.68 182.91 C 282.56 189.47 282.37 196.21 280.46 202.57 C 276.21 217.13 271.61 231.59 267.03 246.05 C 275.97 243.17 285.20 241.21 294.54 240.27 C 295.77 236.48 296.80 232.42 299.47 229.35 C 303.17 227.20 307.68 227.09 311.85 226.84 C 310.62 231.95 308.39 236.77 307.61 241.99 C 306.60 244.21 305.29 246.32 304.75 248.74 C 302.98 255.47 300.28 262.04 299.68 269.03 C 299.55 271.33 300.50 274.48 303.09 274.99 C 305.71 275.11 308.03 273.61 310.14 272.23 C 314.78 268.94 318.97 265.03 322.84 260.88 C 323.93 259.81 324.28 258.30 324.63 256.88 C 328.65 239.51 332.91 222.19 336.86 204.80 C 338.18 198.93 339.15 192.86 338.30 186.85 C 342.29 185.31 346.57 183.86 350.91 184.38 C 352.59 184.55 353.32 186.42 353.20 187.91 C 353.10 194.14 351.00 200.07 349.48 206.04 C 342.83 231.29 336.45 256.60 329.99 281.89 C 329.81 284.77 326.27 284.88 324.13 284.48 C 321.67 284.10 320.15 281.97 319.04 279.96 C 319.76 277.24 320.40 274.51 321.12 271.80 C 316.62 276.13 312.05 280.77 306.21 283.23 C 298.81 285.34 290.70 278.46 290.70 270.94 C 290.32 262.51 291.55 254.08 293.21 245.84 C 282.98 247.22 273.23 250.84 263.82 254.95 C 262.77 258.35 261.69 261.73 260.63 265.13 C 271.84 272.92 281.03 285.07 282.02 299.04 C 282.13 309.78 277.91 320.15 272.08 329.02 C 266.62 337.14 259.39 344.68 250.00 348.06 C 245.69 349.49 240.02 349.90 236.77 346.12 C 233.19 341.97 233.34 335.98 234.44 330.93 C 238.94 309.67 244.75 288.73 249.96 267.64 C 248.89 266.09 247.74 264.55 247.14 262.76 C 246.59 260.20 247.00 257.60 248.35 255.36 C 250.12 252.46 252.90 250.40 255.79 248.71 C 259.55 239.15 261.95 229.13 264.34 219.16 C 267.44 208.45 268.90 196.86 265.93 185.96 M 258.27 274.03 C 255.38 284.31 252.80 294.69 250.70 305.16 C 249.07 313.08 246.53 320.82 245.37 328.84 C 245.23 330.89 244.66 333.24 245.91 335.07 C 250.53 336.23 254.77 332.98 257.95 330.00 C 264.77 323.22 269.64 314.33 271.44 304.87 C 273.36 293.05 267.26 281.39 258.27 274.03 Z" />
<path fill="#ff1616" opacity="1.00" d=" M 312.23 191.11 C 315.25 188.88 318.36 192.12 318.56 195.16 C 319.91 200.53 315.54 206.40 310.01 206.58 C 307.04 205.56 304.87 202.19 305.73 199.05 C 306.55 195.61 309.22 192.82 312.23 191.11 Z" />
<path fill="#ff1616" opacity="1.00" d=" M 385.13 228.20 C 388.28 226.94 392.58 225.99 395.23 228.73 C 399.05 232.77 398.56 238.81 398.20 243.94 C 403.09 237.61 408.75 231.40 416.29 228.26 C 420.04 226.75 425.26 226.58 427.83 230.26 C 431.23 235.12 430.73 241.50 429.85 247.07 C 428.47 254.77 426.05 262.24 424.40 269.88 C 424.06 271.77 423.69 274.13 425.21 275.63 C 428.06 277.22 431.41 275.46 433.83 273.83 C 442.90 267.19 448.95 257.52 455.71 248.75 C 456.66 247.52 458.30 245.68 459.96 247.03 C 461.32 249.18 459.55 251.52 458.55 253.42 C 452.18 263.70 445.08 274.03 435.02 281.05 C 430.01 284.64 423.36 286.54 417.36 284.50 C 413.86 283.29 411.51 279.69 411.69 276.00 C 411.82 265.41 415.87 255.43 417.77 245.12 C 418.45 242.58 417.08 239.01 414.01 239.25 C 409.32 240.45 405.69 244.05 402.74 247.72 C 395.17 257.50 391.10 269.53 389.23 281.65 C 385.85 282.84 381.62 285.14 378.25 282.86 C 377.65 280.64 378.54 278.38 379.11 276.25 C 382.30 266.72 385.35 257.07 386.76 247.09 C 386.92 244.66 387.47 241.96 386.28 239.71 C 383.10 236.94 378.85 240.09 376.13 242.11 C 364.98 252.04 361.09 267.22 358.15 281.29 C 355.11 282.50 352.23 284.44 348.92 284.80 C 345.98 284.79 345.68 281.10 346.27 278.95 C 348.32 269.63 350.74 260.39 352.92 251.10 C 354.31 244.90 356.38 238.77 356.30 232.34 C 359.93 231.33 364.02 228.50 367.74 230.34 C 370.43 234.40 367.58 239.48 366.82 243.76 C 372.02 237.67 377.70 231.54 385.13 228.20 Z" />
</g>
<g id="#ffffffff">
<path fill="#ffffff" opacity="1.00" d=" M 169.39 197.15 C 174.12 194.52 179.60 193.20 185.00 194.01 C 186.14 200.96 185.66 208.16 183.56 214.89 C 179.37 229.02 174.95 243.08 170.49 257.12 C 177.84 254.83 185.35 252.94 193.01 252.01 C 194.24 251.73 195.83 251.92 196.62 250.70 C 198.95 247.93 200.31 244.46 202.72 241.76 C 206.24 238.36 211.24 236.75 216.06 236.64 C 223.49 237.14 230.00 242.57 232.61 249.42 C 234.40 253.76 234.10 258.56 233.70 263.14 C 238.81 261.00 243.68 258.33 248.35 255.36 C 247.00 257.60 246.59 260.20 247.14 262.76 C 242.62 266.25 237.44 268.69 232.40 271.24 C 230.28 277.32 227.98 283.59 223.38 288.29 C 217.88 294.37 208.96 297.36 201.00 294.97 C 196.11 293.43 192.84 288.76 191.67 283.94 C 189.83 275.14 190.19 265.81 193.47 257.38 C 184.39 259.10 175.66 262.31 167.24 266.07 C 166.23 269.41 165.22 272.76 164.05 276.06 C 173.46 282.75 181.32 292.14 184.38 303.43 C 187.03 312.83 184.23 322.72 180.36 331.35 C 175.14 342.04 167.43 352.17 156.59 357.61 C 152.08 359.76 146.22 361.21 141.74 358.27 C 136.83 354.53 136.71 347.53 137.93 342.01 C 142.29 321.86 147.47 301.90 152.77 281.98 C 147.97 287.80 142.28 293.48 135.02 296.02 C 128.05 298.45 119.97 292.44 120.92 284.97 C 122.56 274.52 127.22 264.66 127.91 254.02 C 127.86 252.07 128.12 249.26 126.04 248.23 C 123.62 247.77 121.31 249.05 119.41 250.39 C 114.81 253.82 111.51 258.59 108.16 263.17 C 106.93 264.79 105.92 266.59 105.47 268.60 C 103.92 274.74 102.58 280.94 101.15 287.11 C 100.51 293.29 93.05 295.58 87.76 295.35 C 88.67 290.96 89.87 286.64 91.05 282.32 C 86.51 286.72 81.93 291.40 76.10 294.07 C 68.65 296.63 60.24 289.63 60.20 282.02 C 59.82 271.03 61.62 260.03 64.62 249.49 C 65.72 246.23 66.72 242.65 69.29 240.22 C 73.00 238.40 77.24 238.23 81.29 237.94 C 77.65 251.08 72.24 263.73 69.47 277.12 C 68.84 280.14 68.81 284.38 72.06 285.92 C 74.76 286.36 77.22 284.79 79.39 283.39 C 84.27 279.99 88.57 275.83 92.68 271.56 C 93.96 270.35 94.50 268.65 94.87 266.98 C 96.72 258.74 98.24 250.40 100.67 242.31 C 103.93 239.08 109.28 238.91 113.29 240.89 C 112.04 244.56 110.96 248.29 109.86 252.00 C 114.34 246.07 119.84 240.22 127.23 238.15 C 130.73 237.12 134.98 237.72 137.28 240.81 C 140.75 245.34 140.79 251.58 139.54 256.92 C 137.72 264.22 136.04 271.56 133.73 278.72 C 133.13 281.25 131.99 284.19 133.40 286.64 C 135.39 288.04 137.90 286.87 139.71 285.74 C 144.02 282.86 147.64 279.06 151.02 275.16 C 149.83 271.64 150.40 267.76 152.93 264.97 C 154.79 261.79 159.42 261.10 160.28 257.26 C 163.33 248.58 165.61 239.66 167.70 230.71 C 170.85 219.89 172.36 208.18 169.39 197.15 M 208.37 250.49 C 209.02 250.75 210.32 251.26 210.98 251.52 C 212.13 253.50 209.69 254.69 208.54 255.89 C 209.05 258.54 209.50 261.51 211.70 263.36 C 214.80 266.23 219.28 266.10 223.21 265.93 C 224.71 260.16 225.10 253.83 222.79 248.21 C 221.96 246.26 220.44 243.88 217.98 244.24 C 213.90 244.44 210.70 247.40 208.37 250.49 M 201.79 284.23 C 203.29 287.76 207.75 288.54 210.95 286.96 C 216.10 284.56 218.73 279.18 220.88 274.24 C 217.29 274.39 213.46 274.58 210.21 272.77 C 206.35 270.79 203.84 267.09 201.87 263.36 C 200.05 270.08 198.77 277.67 201.79 284.23 M 161.76 285.03 C 158.74 295.59 156.16 306.26 153.99 317.03 C 152.28 325.36 149.40 333.50 148.67 342.01 C 148.55 343.61 148.54 346.59 150.94 346.22 C 157.17 345.97 161.71 340.91 165.41 336.44 C 171.41 328.31 176.28 318.32 174.95 307.95 C 174.15 298.83 168.51 290.87 161.76 285.03 Z" />
<path fill="#ffffff" opacity="1.00" d=" M 81.38 202.50 C 83.06 201.29 85.73 201.26 86.78 203.31 C 90.09 208.32 87.31 215.72 81.58 217.42 C 78.57 218.74 75.82 215.61 75.12 212.96 C 74.46 208.53 77.82 204.65 81.38 202.50 Z" />
</g>
</svg>
